<svg width="78" height="40" viewBox="0 0 78 40" fill="none" xmlns="http://www.w3.org/2000/svg">
<g filter="url(#filter0_d_301_7969)">
<path d="M21.8455 3.98285C19.7481 5.16747 17.7556 6.15193 15.7444 7.50053C12.7973 9.46699 9.96873 11.6377 7.09225 13.7174C6.34498 14.2521 5.63483 15.152 4.66927 14.2825C4.03748 13.7114 4.25828 12.8061 5.31604 11.5157C5.93182 10.7728 6.59291 10.0741 7.31846 9.45596C11.4291 5.93757 15.9418 3.18446 20.8463 1.23975C21.6823 0.915971 22.5732 0.65456 23.4577 0.591515C25.1379 0.485432 26.0899 1.81301 25.5114 3.55259C25.1394 4.67526 24.4928 5.71708 23.9055 6.74556C22.7851 8.69525 21.5836 10.5749 20.4859 12.5466C20.1852 13.0896 19.7402 14.0522 19.9585 14.5939C20.3598 15.4205 22.4967 14.0165 23.456 13.3594C26.3935 11.3747 29.2735 9.2807 32.1918 7.25958C35.1136 5.22409 38.2042 3.53095 41.5662 2.56458C42.5461 2.28316 43.5739 2.09284 44.5823 2.09704C46.2082 2.09822 47.1417 3.55899 46.613 5.267C46.3574 6.08508 45.9247 6.88185 45.412 7.54721C44.1087 9.21204 42.7052 10.7704 41.3697 12.3949C39.9739 14.0941 38.5389 15.7818 37.5469 18.3545C38.3421 17.9109 38.8482 17.6749 39.3066 17.3477C42.2746 15.295 45.2008 13.1839 48.188 11.1676C50.9064 9.33406 53.73 7.70095 56.8563 6.89622C58.0369 6.59686 59.3167 6.46534 60.5098 6.63174C62.1617 6.87158 62.9345 8.53147 62.1965 10.1779C61.6491 11.3875 60.8506 12.4771 60.0662 13.5091C58.5681 15.4554 56.9924 17.3173 55.4751 19.2272C55.1336 19.6503 54.1731 20.5997 54.7598 20.8957C55.5996 20.3266 56.4428 19.7431 57.2922 19.1922C59.5522 17.6858 61.78 16.1391 64.0783 14.7056C66.1479 13.405 68.3411 12.4026 70.8096 12.5132C72.8908 12.6021 73.9513 14.3467 73.1047 16.4386C72.6919 17.4415 72.1151 18.4268 71.439 19.2444C68.4832 22.8563 65.4726 26.4058 62.4715 29.9736C62.1404 30.3536 61.7763 30.7546 61.346 30.9668C60.9489 31.158 60.3189 31.3268 60.0365 31.105C59.7541 30.8833 59.2908 30.254 59.577 29.3679C59.8457 28.5537 60.2187 28.0012 60.7018 27.3425C62.9295 24.3018 65.2251 21.3273 67.4981 18.3307C68.1148 17.5265 68.7542 16.7444 69.384 15.944C69.5945 15.7133 69.5657 15.6587 69.5118 15.535C69.185 15.2078 67.9248 15.7763 67.381 16.1091C64.271 17.9968 61.1932 19.9247 58.1249 21.8709C56.9142 22.6388 55.7574 23.5305 54.5467 24.2984C53.5516 24.9296 52.4645 25.1333 51.5191 24.2389C50.5736 23.3445 50.5671 22.0488 51.0307 20.9531C51.7023 19.3487 52.4464 17.7349 53.4493 16.3821C54.9623 14.317 56.7316 12.4659 58.3841 10.5188C58.6619 10.1847 58.9205 9.81419 59.4036 9.15549C58.6463 9.27141 58.1962 9.27753 57.7608 9.39579C54.904 10.1874 52.2969 11.6225 49.843 13.349C46.8976 15.4238 44.0611 17.6846 41.1313 19.8102C39.972 20.6548 38.7795 21.5206 37.5027 22.0996C35.0215 23.2483 33.1957 21.7097 33.6246 18.8017C33.8328 17.4306 34.3594 16.0762 34.9661 14.8532C36.4951 11.7454 38.8347 9.33831 41.0896 6.87549C41.5673 6.35383 42.045 5.83216 42.4261 5.18962C39.6527 5.46677 37.1846 6.61927 34.8566 8.05946C31.242 10.2915 27.7388 12.7565 24.1756 15.0652C23.2599 15.6582 22.2727 16.1993 21.2527 16.5305C19.5197 17.0831 18.0835 15.844 18.1729 13.868C18.2311 12.422 18.5861 10.9092 19.1187 9.58743C19.8876 7.64207 21.9987 4.27439 22.0025 4.02906C22.0551 3.8135 21.8455 3.98285 21.8455 3.98285Z" fill="#81ADC8"/>
</g>
<defs>
<filter id="filter0_d_301_7969" x="0.317383" y="0.585571" width="77.0798" height="38.6246" filterUnits="userSpaceOnUse" color-interpolation-filters="sRGB">
<feFlood flood-opacity="0" result="BackgroundImageFix"/>
<feColorMatrix in="SourceAlpha" type="matrix" values="0 0 0 0 0 0 0 0 0 0 0 0 0 0 0 0 0 0 127 0" result="hardAlpha"/>
<feOffset dy="4"/>
<feGaussianBlur stdDeviation="2"/>
<feComposite in2="hardAlpha" operator="out"/>
<feColorMatrix type="matrix" values="0 0 0 0 0 0 0 0 0 0 0 0 0 0 0 0 0 0 0.25 0"/>
<feBlend mode="normal" in2="BackgroundImageFix" result="effect1_dropShadow_301_7969"/>
<feBlend mode="normal" in="SourceGraphic" in2="effect1_dropShadow_301_7969" result="shape"/>
</filter>
</defs>
</svg>
