<svg width="332" height="332" viewBox="0 0 332 332" fill="none" xmlns="http://www.w3.org/2000/svg">
    <g clip-path="url(#clip0_301_11203)">
    <path d="M143.568 305.081C117.09 305.081 91.1291 297.759 68.5537 283.925C45.9783 270.091 27.6683 250.283 15.6479 226.692C3.62759 203.101 -1.6348 176.645 0.44256 150.249C2.51992 123.854 11.8561 98.547 27.4189 77.1266C42.9818 55.7062 64.165 39.0067 88.6266 28.8744C113.088 18.742 139.875 15.5716 166.026 19.7135C192.178 23.8554 216.674 35.1484 236.807 52.3439C256.941 69.5393 271.927 91.9675 280.108 117.149L266.454 121.585C259.091 98.9221 245.603 78.7368 227.483 63.2608C209.363 47.7849 187.317 37.6212 163.781 33.8935C140.245 30.1658 116.136 33.0192 94.1207 42.1383C72.1053 51.2574 53.0404 66.2869 39.0338 85.5653C25.0273 104.844 16.6247 127.62 14.7551 151.376C12.8854 175.132 17.6216 198.942 28.4399 220.174C39.2582 241.406 55.7372 259.233 76.0551 271.684C96.373 284.135 119.738 290.724 143.568 290.724L143.568 305.081Z" fill="#818181"/>
    <path d="M194.498 167.137C197.01 167.932 198.979 169.272 200.402 171.157C201.826 172.999 202.538 175.281 202.538 178.003C202.538 181.856 201.03 184.829 198.015 186.922C195.042 188.974 190.688 190 184.951 190H162.213V146.032H183.695C189.054 146.032 193.158 147.058 196.006 149.11C198.895 151.162 200.339 153.947 200.339 157.464C200.339 159.6 199.816 161.505 198.769 163.18C197.764 164.855 196.341 166.174 194.498 167.137ZM172.326 153.695V164.059H182.438C184.951 164.059 186.856 163.619 188.154 162.74C189.452 161.861 190.101 160.563 190.101 158.846C190.101 157.129 189.452 155.852 188.154 155.014C186.856 154.135 184.951 153.695 182.438 153.695H172.326ZM184.197 182.337C186.877 182.337 188.887 181.897 190.227 181.018C191.609 180.139 192.3 178.778 192.3 176.935C192.3 173.292 189.599 171.471 184.197 171.471H172.326V182.337H184.197ZM223.118 190.502C219.558 190.502 216.355 189.77 213.508 188.304C210.702 186.797 208.504 184.724 206.913 182.086C205.321 179.448 204.526 176.454 204.526 173.104C204.526 169.754 205.321 166.76 206.913 164.122C208.504 161.484 210.702 159.432 213.508 157.966C216.355 156.459 219.558 155.705 223.118 155.705C226.677 155.705 229.859 156.459 232.665 157.966C235.47 159.432 237.669 161.484 239.26 164.122C240.851 166.76 241.647 169.754 241.647 173.104C241.647 176.454 240.851 179.448 239.26 182.086C237.669 184.724 235.47 186.797 232.665 188.304C229.859 189.77 226.677 190.502 223.118 190.502ZM223.118 182.463C225.63 182.463 227.682 181.625 229.273 179.95C230.906 178.233 231.723 175.951 231.723 173.104C231.723 170.256 230.906 167.995 229.273 166.32C227.682 164.603 225.63 163.745 223.118 163.745C220.605 163.745 218.533 164.603 216.899 166.32C215.266 167.995 214.45 170.256 214.45 173.104C214.45 175.951 215.266 178.233 216.899 179.95C218.533 181.625 220.605 182.463 223.118 182.463ZM261.764 190.502C258.204 190.502 255.001 189.77 252.153 188.304C249.348 186.797 247.15 184.724 245.558 182.086C243.967 179.448 243.172 176.454 243.172 173.104C243.172 169.754 243.967 166.76 245.558 164.122C247.15 161.484 249.348 159.432 252.153 157.966C255.001 156.459 258.204 155.705 261.764 155.705C265.323 155.705 268.505 156.459 271.311 157.966C274.116 159.432 276.315 161.484 277.906 164.122C279.497 166.76 280.293 169.754 280.293 173.104C280.293 176.454 279.497 179.448 277.906 182.086C276.315 184.724 274.116 186.797 271.311 188.304C268.505 189.77 265.323 190.502 261.764 190.502ZM261.764 182.463C264.276 182.463 266.328 181.625 267.919 179.95C269.552 178.233 270.369 175.951 270.369 173.104C270.369 170.256 269.552 167.995 267.919 166.32C266.328 164.603 264.276 163.745 261.764 163.745C259.251 163.745 257.178 164.603 255.545 166.32C253.912 167.995 253.096 170.256 253.096 173.104C253.096 175.951 253.912 178.233 255.545 179.95C257.178 181.625 259.251 182.463 261.764 182.463ZM298.839 176.747L294.128 181.395V190H284.33V143.394H294.128V169.775L308.449 156.208H320.132L306.062 170.529L321.388 190H309.517L298.839 176.747Z" fill="#CD4631"/>
    <path d="M183.506 247.754C178.942 247.754 174.817 246.77 171.132 244.802C167.489 242.834 164.621 240.133 162.527 236.699C160.476 233.223 159.45 229.329 159.45 225.016C159.45 220.703 160.476 216.83 162.527 213.396C164.621 209.921 167.489 207.199 171.132 205.231C174.817 203.263 178.942 202.279 183.506 202.279C188.07 202.279 192.174 203.263 195.817 205.231C199.46 207.199 202.328 209.921 204.422 213.396C206.516 216.83 207.563 220.703 207.563 225.016C207.563 229.329 206.516 233.223 204.422 236.699C202.328 240.133 199.46 242.834 195.817 244.802C192.174 246.77 188.07 247.754 183.506 247.754ZM183.506 239.086C186.102 239.086 188.447 238.5 190.541 237.327C192.635 236.113 194.268 234.438 195.44 232.302C196.655 230.167 197.262 227.738 197.262 225.016C197.262 222.294 196.655 219.866 195.44 217.73C194.268 215.595 192.635 213.941 190.541 212.768C188.447 211.554 186.102 210.947 183.506 210.947C180.91 210.947 178.565 211.554 176.471 212.768C174.378 213.941 172.724 215.595 171.509 217.73C170.337 219.866 169.751 222.294 169.751 225.016C169.751 227.738 170.337 230.167 171.509 232.302C172.724 234.438 174.378 236.113 176.471 237.327C178.565 238.5 180.91 239.086 183.506 239.086ZM233.174 210.947C229.656 210.947 226.997 211.721 225.197 213.271C223.396 214.778 222.496 217.06 222.496 220.117V222.818H240.585V230.983H222.496V247H212.321V220.18C212.321 214.527 214.079 210.13 217.597 206.99C221.156 203.849 226.118 202.279 232.483 202.279C234.995 202.279 237.361 202.551 239.581 203.095C241.8 203.598 243.726 204.351 245.359 205.356L242.219 213.396C239.706 211.763 236.691 210.947 233.174 210.947ZM162.213 260.032H172.389V295.709H194.435V304H162.213V260.032ZM212.683 268.198V295.835H220.283V304H194.844V295.835H202.507V268.198H194.844V260.032H220.283V268.198H212.683ZM245.935 267.947C242.417 267.947 239.758 268.721 237.958 270.271C236.157 271.778 235.257 274.06 235.257 277.117V279.818H253.346V287.983H235.257V304H225.082V277.18C225.082 271.527 226.84 267.13 230.358 263.99C233.917 260.849 238.879 259.279 245.244 259.279C247.756 259.279 250.122 259.551 252.341 260.095C254.561 260.598 256.487 261.351 258.12 262.356L254.979 270.396C252.467 268.763 249.452 267.947 245.935 267.947ZM296.29 300.231C294.197 301.655 291.559 302.765 288.376 303.56C285.236 304.356 281.886 304.754 278.326 304.754C273.888 304.754 270.119 304.209 267.02 303.121C263.922 301.99 261.577 300.441 259.986 298.473C258.394 296.463 257.599 294.181 257.599 291.626C257.599 289.281 258.248 287.209 259.546 285.408C260.844 283.607 262.624 282.267 264.885 281.388C263.168 280.467 261.828 279.211 260.865 277.619C259.944 276.028 259.483 274.249 259.483 272.281C259.483 269.894 260.216 267.716 261.682 265.748C263.147 263.78 265.366 262.21 268.34 261.037C271.313 259.865 274.956 259.279 279.269 259.279C282.116 259.279 284.901 259.572 287.622 260.158C290.344 260.702 292.71 261.456 294.72 262.419L291.894 270.208C288.041 268.407 283.958 267.507 279.645 267.507C276.379 267.507 273.909 268.009 272.234 269.014C270.601 269.977 269.784 271.297 269.784 272.971C269.784 274.521 270.329 275.714 271.417 276.552C272.548 277.347 274.244 277.745 276.505 277.745H288.502V285.785H275.877C273.323 285.785 271.354 286.225 269.973 287.104C268.591 287.983 267.9 289.26 267.9 290.935C267.9 292.694 268.779 294.076 270.538 295.081C272.338 296.044 275.081 296.526 278.766 296.526C281.362 296.526 283.958 296.191 286.555 295.521C289.151 294.809 291.349 293.825 293.15 292.568L296.29 300.231Z" fill="#828282"/>
    </g>
    <defs>
    <clipPath id="clip0_301_11203">
    <rect width="332" height="332" fill="white"/>
    </clipPath>
    </defs>
</svg>
